<svg width="472" height="472" viewBox="0 0 472 472" fill="none" xmlns="http://www.w3.org/2000/svg">
<g clip-path="url(#clip0_110_492)">
<path d="M472 360.986H0V361.222H472V360.986Z" fill="#EBEBEB"/>
<path d="M108.872 369.972H85.3942V370.208H108.872V369.972Z" fill="#EBEBEB"/>
<path d="M169.759 367.414H143.799V367.65H169.759V367.414Z" fill="#EBEBEB"/>
<path d="M99.8563 378.742H45.0005V378.978H99.8563V378.742Z" fill="#EBEBEB"/>
<path d="M424.706 377.156H404.315V377.392H424.706V377.156Z" fill="#EBEBEB"/>
<path d="M229.128 369.236H202.762V369.472H229.128V369.236Z" fill="#EBEBEB"/>
<path d="M350.12 373.173H283.832V373.409H350.12V373.173Z" fill="#EBEBEB"/>
<path d="M223.728 318.883H41.4511C40.0231 318.881 38.6545 318.312 37.6457 317.301C36.6369 316.29 36.0702 314.921 36.0703 313.493V57.263C36.0827 55.8433 36.6548 54.4858 37.6623 53.4853C38.6697 52.4849 40.0312 51.9224 41.4511 51.92H223.728C225.158 51.92 226.529 52.4879 227.54 53.4987C228.55 54.5096 229.118 55.8806 229.118 57.3102V313.493C229.118 314.923 228.55 316.294 227.54 317.304C226.529 318.315 225.158 318.883 223.728 318.883ZM41.4511 52.1088C40.0857 52.1113 38.7771 52.6554 37.8126 53.6218C36.848 54.5881 36.3062 55.8977 36.3063 57.263V313.493C36.3062 314.858 36.848 316.168 37.8126 317.134C38.7771 318.101 40.0857 318.645 41.4511 318.647H223.728C225.094 318.645 226.404 318.101 227.37 317.135C228.336 316.169 228.88 314.859 228.882 313.493V57.263C228.88 55.8968 228.336 54.5872 227.37 53.6212C226.404 52.6551 225.094 52.1113 223.728 52.1088H41.4511Z" fill="#EBEBEB"/>
<path d="M427.925 318.883H245.638C244.209 318.881 242.84 318.312 241.83 317.302C240.819 316.291 240.25 314.922 240.248 313.493V57.263C240.263 55.8424 240.837 54.4849 241.846 53.4848C242.855 52.4846 244.218 51.9224 245.638 51.92H427.925C429.343 51.9249 430.702 52.4885 431.707 53.4887C432.713 54.4888 433.284 55.8449 433.296 57.263V313.493C433.296 314.919 432.731 316.287 431.724 317.298C430.717 318.308 429.351 318.878 427.925 318.883ZM245.638 52.1088C244.272 52.1113 242.962 52.6551 241.996 53.6212C241.03 54.5872 240.486 55.8968 240.484 57.263V313.493C240.486 314.859 241.03 316.169 241.996 317.135C242.962 318.101 244.272 318.645 245.638 318.647H427.925C429.291 318.645 430.6 318.101 431.566 317.135C432.533 316.169 433.076 314.859 433.079 313.493V57.263C433.076 55.8968 432.533 54.5872 431.566 53.6212C430.6 52.6551 429.291 52.1113 427.925 52.1088H245.638Z" fill="#EBEBEB"/>
<path d="M303.043 61.0013H30.0664C25.5827 61.0013 21.948 64.636 21.948 69.1197V237.237C21.948 241.72 25.5827 245.355 30.0664 245.355H303.043C307.527 245.355 311.161 241.72 311.161 237.237V69.1197C311.161 64.636 307.527 61.0013 303.043 61.0013Z" fill="#EBEBEB"/>
<path d="M311.161 70.328H21.948V218.932H311.161V70.328Z" fill="#FAFAFA"/>
<path d="M218.319 126.628C218.324 124.789 219.056 123.028 220.357 121.727C221.657 120.427 223.419 119.695 225.257 119.69H441.433C443.272 119.695 445.034 120.427 446.334 121.727C447.634 123.028 448.367 124.789 448.372 126.628V148.963H218.319V126.628Z" fill="#E6E6E6"/>
<path d="M274.43 139.58C277.329 139.58 279.679 137.23 279.679 134.331C279.679 131.432 277.329 129.083 274.43 129.083C271.531 129.083 269.182 131.432 269.182 134.331C269.182 137.23 271.531 139.58 274.43 139.58Z" fill="white"/>
<path d="M255.833 139.58C258.732 139.58 261.082 137.23 261.082 134.331C261.082 131.432 258.732 129.083 255.833 129.083C252.935 129.083 250.585 131.432 250.585 134.331C250.585 137.23 252.935 139.58 255.833 139.58Z" fill="white"/>
<path d="M237.246 139.58C240.145 139.58 242.495 137.23 242.495 134.331C242.495 131.432 240.145 129.083 237.246 129.083C234.347 129.083 231.997 131.432 231.997 134.331C231.997 137.23 234.347 139.58 237.246 139.58Z" fill="white"/>
<path d="M441.405 269.229H225.229C223.39 269.224 221.628 268.491 220.328 267.191C219.028 265.891 218.296 264.129 218.291 262.29V149.01H448.343V262.29C448.338 264.129 447.606 265.891 446.306 267.191C445.006 268.491 443.244 269.224 441.405 269.229Z" fill="#F5F5F5"/>
<path d="M187.431 165.266C187.436 163.427 188.169 161.666 189.469 160.365C190.769 159.065 192.531 158.333 194.37 158.328H410.546C412.384 158.333 414.146 159.065 415.446 160.365C416.746 161.666 417.479 163.427 417.484 165.266V187.601H187.431V165.266Z" fill="#F0F0F0"/>
<path d="M243.533 178.218C246.432 178.218 248.782 175.868 248.782 172.969C248.782 170.07 246.432 167.72 243.533 167.72C240.634 167.72 238.284 170.07 238.284 172.969C238.284 175.868 240.634 178.218 243.533 178.218Z" fill="#E6E6E6"/>
<path d="M224.936 178.218C227.835 178.218 230.185 175.868 230.185 172.969C230.185 170.07 227.835 167.72 224.936 167.72C222.038 167.72 219.688 170.07 219.688 172.969C219.688 175.868 222.038 178.218 224.936 178.218Z" fill="#E6E6E6"/>
<path d="M206.349 178.218C209.248 178.218 211.598 175.868 211.598 172.969C211.598 170.07 209.248 167.72 206.349 167.72C203.45 167.72 201.1 170.07 201.1 172.969C201.1 175.868 203.45 178.218 206.349 178.218Z" fill="#E6E6E6"/>
<path d="M410.508 307.867H194.332C192.493 307.862 190.731 307.129 189.431 305.829C188.131 304.529 187.398 302.767 187.393 300.928V187.648H417.446V300.928C417.441 302.767 416.709 304.529 415.409 305.829C414.108 307.129 412.346 307.862 410.508 307.867Z" fill="#FAFAFA"/>
<path d="M156.534 203.904C156.539 202.065 157.272 200.303 158.572 199.003C159.872 197.703 161.634 196.971 163.472 196.966H379.648C381.487 196.971 383.249 197.703 384.549 199.003C385.849 200.303 386.582 202.065 386.587 203.904V226.239H156.534V203.904Z" fill="#FAFAFA"/>
<path d="M212.636 216.856C215.535 216.856 217.885 214.506 217.885 211.607C217.885 208.708 215.535 206.358 212.636 206.358C209.737 206.358 207.387 208.708 207.387 211.607C207.387 214.506 209.737 216.856 212.636 216.856Z" fill="#F0F0F0"/>
<path d="M194.039 216.856C196.938 216.856 199.288 214.506 199.288 211.607C199.288 208.708 196.938 206.358 194.039 206.358C191.14 206.358 188.791 208.708 188.791 211.607C188.791 214.506 191.14 216.856 194.039 216.856Z" fill="#F0F0F0"/>
<path d="M175.452 216.856C178.351 216.856 180.7 214.506 180.7 211.607C180.7 208.708 178.351 206.358 175.452 206.358C172.553 206.358 170.203 208.708 170.203 211.607C170.203 214.506 172.553 216.856 175.452 216.856Z" fill="#F0F0F0"/>
<path d="M379.611 346.505H163.435C161.596 346.5 159.834 345.767 158.534 344.467C157.234 343.167 156.501 341.405 156.496 339.566V226.286H386.549V339.566C386.544 341.405 385.812 343.167 384.511 344.467C383.211 345.767 381.449 346.5 379.611 346.505Z" fill="#E6E6E6"/>
<path d="M236 403.617C337.086 403.617 419.032 398.832 419.032 392.931C419.032 387.029 337.086 382.245 236 382.245C134.914 382.245 52.9678 387.029 52.9678 392.931C52.9678 398.832 134.914 403.617 236 403.617Z" fill="#F5F5F5"/>
<path d="M180.455 77.88H172.12V78.824H180.455V77.88Z" fill="#407BFF"/>
<path d="M162.217 77.88H141.76V78.824H162.217V77.88Z" fill="#407BFF"/>
<path d="M85.2715 81.184H386.728C389.733 81.184 392.614 82.3775 394.739 84.5019C396.863 86.6263 398.056 89.5076 398.056 92.512V352.792H73.9435V92.512C73.9435 89.5076 75.137 86.6263 77.2614 84.5019C79.3858 82.3775 82.2671 81.184 85.2715 81.184Z" fill="#407BFF"/>
<path opacity="0.8" d="M398.047 98.176H73.9435V348.393H398.047V98.176Z" fill="white"/>
<path opacity="0.4" d="M398.047 98.176H73.9435V153.183H398.047V98.176Z" fill="#407BFF"/>
<path opacity="0.4" d="M391.363 103.434H377.836V116.962H391.363V103.434Z" fill="#407BFF"/>
<path opacity="0.4" d="M371.294 103.434H357.767V116.962H371.294V103.434Z" fill="#407BFF"/>
<path opacity="0.4" d="M351.225 103.434H337.697V116.962H351.225V103.434Z" fill="#407BFF"/>
<path opacity="0.4" d="M135.266 339.368H121.738V340.727H135.266V339.368Z" fill="#407BFF"/>
<path opacity="0.4" d="M115.196 339.368H101.669V340.727H115.196V339.368Z" fill="#407BFF"/>
<path opacity="0.4" d="M95.1269 339.368H81.5994V340.727H95.1269V339.368Z" fill="#407BFF"/>
<path d="M203.611 129.517H199.486L198.91 131.461H195.2L199.618 119.69H203.592L208.01 131.461H204.234L203.611 129.517ZM202.856 126.977L201.563 122.72L200.27 126.959L202.856 126.977Z" fill="white"/>
<path d="M208.964 119.69H212.268V123.768C212.577 123.436 212.953 123.176 213.372 123.003C213.81 122.826 214.278 122.736 214.751 122.739C215.236 122.728 215.718 122.822 216.163 123.016C216.608 123.21 217.006 123.499 217.328 123.862C218.061 124.768 218.425 125.918 218.347 127.081C218.365 127.923 218.208 128.759 217.885 129.536C217.62 130.183 217.17 130.738 216.591 131.131C216.048 131.478 215.414 131.659 214.769 131.65C214.222 131.656 213.681 131.53 213.193 131.282C212.734 131.003 212.336 130.633 212.022 130.196V131.461H208.964V119.69ZM212.24 127.176C212.194 127.739 212.34 128.301 212.655 128.771C212.781 128.927 212.941 129.052 213.122 129.137C213.304 129.222 213.502 129.265 213.703 129.262C213.887 129.258 214.068 129.211 214.232 129.126C214.395 129.041 214.537 128.919 214.647 128.771C214.956 128.285 215.095 127.711 215.043 127.138C215.083 126.615 214.946 126.093 214.656 125.656C214.545 125.51 214.403 125.392 214.239 125.31C214.075 125.229 213.895 125.185 213.712 125.184C213.506 125.176 213.3 125.217 213.112 125.302C212.924 125.387 212.757 125.515 212.627 125.675C212.324 126.114 212.187 126.645 212.24 127.176Z" fill="white"/>
<path d="M219.508 127.223C219.491 126.624 219.6 126.028 219.828 125.473C220.055 124.919 220.397 124.418 220.83 124.004C221.309 123.566 221.87 123.227 222.481 123.007C223.092 122.786 223.74 122.689 224.389 122.72C225.102 122.67 225.818 122.777 226.486 123.035C227.153 123.293 227.755 123.695 228.25 124.212C228.974 125.089 229.35 126.203 229.305 127.341C229.259 128.478 228.796 129.559 228.004 130.376C227.514 130.813 226.942 131.149 226.322 131.364C225.701 131.58 225.044 131.671 224.389 131.631C223.194 131.685 222.018 131.318 221.066 130.593C220.565 130.189 220.164 129.674 219.894 129.09C219.623 128.505 219.492 127.867 219.508 127.223ZM222.784 127.223C222.739 127.823 222.903 128.419 223.247 128.913C223.39 129.08 223.568 129.215 223.769 129.307C223.969 129.399 224.187 129.447 224.408 129.447C224.628 129.447 224.846 129.399 225.047 129.307C225.247 129.215 225.425 129.08 225.569 128.913C225.914 128.406 226.074 127.796 226.022 127.185C226.078 126.61 225.934 126.034 225.616 125.552C225.48 125.383 225.307 125.247 225.111 125.154C224.915 125.06 224.7 125.013 224.483 125.014C224.258 125.008 224.034 125.054 223.829 125.149C223.624 125.244 223.444 125.385 223.303 125.561C222.942 126.034 222.758 126.619 222.784 127.213V127.223Z" fill="white"/>
<path d="M239.861 131.461H236.812V130.083C236.442 130.578 235.973 130.99 235.434 131.292C234.902 131.549 234.315 131.672 233.725 131.65C233.336 131.672 232.947 131.612 232.582 131.474C232.218 131.336 231.887 131.123 231.61 130.848C231.047 130.149 230.773 129.26 230.846 128.365V122.937H234.112V127.657C234.073 128.06 234.176 128.465 234.405 128.799C234.511 128.915 234.641 129.005 234.786 129.064C234.932 129.123 235.088 129.148 235.245 129.139C235.426 129.141 235.606 129.102 235.77 129.023C235.934 128.944 236.077 128.829 236.189 128.686C236.492 128.206 236.625 127.637 236.566 127.072V122.975H239.833L239.861 131.461Z" fill="white"/>
<path d="M245.789 119.69V122.937H247.583V125.325H245.789V128.384C245.766 128.631 245.802 128.88 245.893 129.111C245.952 129.202 246.036 129.276 246.134 129.322C246.232 129.369 246.342 129.387 246.45 129.375C246.795 129.357 247.136 129.287 247.46 129.168L247.706 131.424C246.962 131.594 246.203 131.682 245.44 131.688C244.826 131.727 244.211 131.62 243.646 131.376C243.259 131.171 242.955 130.837 242.787 130.432C242.566 129.767 242.473 129.065 242.514 128.365V125.363H241.305V122.975H242.514V121.408L245.789 119.69Z" fill="white"/>
<path d="M262.498 119.69H266.123V126.704C266.129 127.375 266.02 128.042 265.802 128.677C265.589 129.285 265.24 129.837 264.783 130.291C264.369 130.704 263.874 131.025 263.329 131.235C262.508 131.509 261.645 131.64 260.78 131.622C260.149 131.621 259.518 131.58 258.892 131.499C258.305 131.446 257.732 131.286 257.202 131.027C256.72 130.774 256.293 130.428 255.947 130.008C255.596 129.617 255.333 129.157 255.173 128.658C254.967 128.013 254.855 127.342 254.842 126.666V119.652H258.467V126.836C258.452 127.109 258.491 127.382 258.581 127.639C258.672 127.897 258.813 128.134 258.996 128.337C259.194 128.522 259.427 128.665 259.682 128.758C259.936 128.85 260.207 128.89 260.478 128.875C260.747 128.893 261.016 128.855 261.269 128.764C261.523 128.673 261.755 128.531 261.951 128.346C262.138 128.144 262.282 127.906 262.374 127.646C262.467 127.387 262.506 127.111 262.489 126.836L262.498 119.69Z" fill="white"/>
<path d="M267.737 129.092L270.985 128.79C271.076 129.117 271.272 129.405 271.542 129.611C271.824 129.789 272.152 129.878 272.486 129.866C272.848 129.89 273.207 129.791 273.505 129.583C273.592 129.527 273.663 129.45 273.712 129.359C273.762 129.268 273.788 129.167 273.788 129.064C273.787 128.947 273.751 128.832 273.686 128.735C273.62 128.638 273.528 128.562 273.42 128.516C272.964 128.354 272.493 128.24 272.014 128.176C271.213 128.061 270.423 127.877 269.654 127.629C269.209 127.457 268.823 127.162 268.54 126.779C268.233 126.386 268.07 125.9 268.077 125.401C268.069 124.877 268.242 124.367 268.568 123.957C268.923 123.524 269.39 123.197 269.918 123.013C270.664 122.789 271.442 122.687 272.221 122.711C272.981 122.684 273.74 122.763 274.477 122.947C274.933 123.087 275.348 123.337 275.686 123.673C276.045 124.053 276.321 124.503 276.498 124.995L273.392 125.297C273.336 125.055 273.196 124.84 272.995 124.693C272.714 124.514 272.385 124.425 272.051 124.438C271.769 124.415 271.488 124.485 271.249 124.636C271.171 124.69 271.108 124.762 271.063 124.846C271.019 124.93 270.995 125.023 270.994 125.118C270.994 125.219 271.025 125.319 271.082 125.403C271.139 125.487 271.221 125.552 271.315 125.59C271.766 125.746 272.236 125.841 272.712 125.873C273.541 125.936 274.357 126.111 275.138 126.392C275.628 126.581 276.051 126.909 276.356 127.336C276.628 127.73 276.773 128.198 276.771 128.677C276.764 129.188 276.61 129.686 276.328 130.112C275.981 130.615 275.491 131.003 274.921 131.225C274.084 131.531 273.196 131.668 272.306 131.631C271.159 131.724 270.008 131.495 268.983 130.971C268.34 130.53 267.893 129.856 267.737 129.092Z" fill="white"/>
<path d="M140.826 259.713C166.894 259.713 188.026 238.581 188.026 212.513C188.026 186.445 166.894 165.313 140.826 165.313C114.758 165.313 93.6259 186.445 93.6259 212.513C93.6259 238.581 114.758 259.713 140.826 259.713Z" fill="#407BFF"/>
<path d="M172.446 244.131C189.909 226.668 189.909 198.354 172.446 180.891C154.983 163.428 126.669 163.428 109.206 180.891C91.7429 198.354 91.7429 226.668 109.206 244.131C126.669 261.594 154.983 261.594 172.446 244.131Z" fill="white"/>
<mask id="mask0_110_492" style="mask-type:luminance" maskUnits="userSpaceOnUse" x="96" y="167" width="90" height="91">
<path d="M172.446 244.131C189.909 226.668 189.909 198.354 172.446 180.891C154.983 163.428 126.669 163.428 109.206 180.891C91.7429 198.354 91.7429 226.668 109.206 244.131C126.669 261.594 154.983 261.594 172.446 244.131Z" fill="white"/>
</mask>
<g mask="url(#mask0_110_492)">
<path d="M143.11 221.84L146.886 213.986C146.886 213.986 166.597 220.216 169.542 221.661C169.467 216.733 171.978 207.501 172.252 202.441C172.997 201.733 174.8 199.949 175.735 200.015C178.567 206.623 177.953 229.279 172.384 229.685C163.482 230.251 143.11 221.84 143.11 221.84Z" fill="#B55B52"/>
<path d="M140.656 220.613C142.931 225.946 161.613 230.695 161.613 230.695L165.389 219.216C165.389 219.216 158.271 213.816 150.88 212.07C143.318 210.267 138.145 214.76 140.656 220.613Z" fill="#407BFF"/>
<path opacity="0.2" d="M140.986 221.236C143.205 224.587 151.455 227.627 156.827 229.316C153.249 222.369 148.425 218.536 140.986 221.236Z" fill="black"/>
<path d="M172.233 203.441L169.221 199.58L174.791 196.475C175.888 198.132 176.451 200.086 176.405 202.073L172.233 203.441Z" fill="#B55B52"/>
<path d="M168.4 194.237L173.828 193.36L174.791 196.475L169.221 199.58L168.4 194.237Z" fill="#B55B52"/>
<path d="M151.333 212.457C151.333 212.457 158.941 230.77 152.975 264.896H123.239C122.89 259.912 125.429 235.632 120.048 212.145C123.624 211.449 127.241 210.988 130.876 210.767C135.47 210.502 140.075 210.502 144.668 210.767C149.482 211.211 151.333 212.457 151.333 212.457Z" fill="#407BFF"/>
<path opacity="0.2" d="M127.232 217.932C127.874 221.802 126.883 231.044 123.456 241.721C123.286 232.572 122.313 223.455 120.549 214.477C122.72 214.212 126.628 214.288 127.232 217.932Z" fill="black"/>
<path d="M132.358 197.872C133.302 202.309 133.906 207.812 130.876 210.767C130.876 210.767 132.764 215.27 141.015 215.27C148.567 215.27 144.668 210.767 144.668 210.767C139.693 209.587 139.797 203.47 140.58 200.015L132.358 197.872Z" fill="#B55B52"/>
<path d="M141.402 214.911L143.195 216.893C143.256 216.962 143.298 217.044 143.318 217.134C143.338 217.223 143.335 217.316 143.309 217.403L142.733 219.15C142.7 219.245 142.64 219.329 142.559 219.39C142.478 219.45 142.381 219.485 142.28 219.489L140.392 219.584C140.3 219.59 140.209 219.571 140.128 219.529C140.047 219.488 139.978 219.425 139.929 219.348L138.768 217.658C138.7 217.567 138.663 217.456 138.663 217.342C138.663 217.228 138.7 217.117 138.768 217.026L140.656 214.911C140.755 214.812 140.889 214.757 141.029 214.757C141.169 214.757 141.303 214.812 141.402 214.911Z" fill="white"/>
<path d="M141.015 214.477C140.099 216.01 139.592 217.752 139.542 219.537C139.542 219.537 129.158 215.893 129.47 210.55C129.47 210.55 130.914 209.681 131.83 208.973C131.83 208.973 132.264 212.343 141.015 214.477Z" fill="#263238"/>
<path d="M141.015 214.477C141.995 215.913 142.714 217.511 143.139 219.197C143.139 219.197 147.745 216.025 146.207 210.748C145.342 210.402 144.452 210.121 143.545 209.908C143.545 209.908 144.243 213.344 141.015 214.477Z" fill="#263238"/>
<path d="M141.855 219.216C141.855 219.216 144.81 240.928 144.876 244.704C144.836 248.278 144.273 251.827 143.205 255.239C143.205 255.239 141.175 251.397 140.826 244.543C140.477 237.69 140.901 223.058 140.75 219.206L141.855 219.216Z" fill="white"/>
<path opacity="0.2" d="M140.58 200.024C139.973 202.426 140.044 204.949 140.788 207.312C140.02 207.193 139.273 206.964 138.57 206.632C135.738 205.311 134.312 203.243 132.811 200.175C132.679 199.382 132.528 198.618 132.368 197.872L140.58 200.024Z" fill="black"/>
<path d="M148.406 196.909C148.071 197.571 147.605 198.159 147.037 198.637C146.47 199.116 145.812 199.475 145.102 199.694C143.214 200.251 142.185 198.523 142.657 196.682C143.091 195.021 144.545 192.736 146.528 192.972C146.953 193.037 147.357 193.204 147.702 193.461C148.048 193.717 148.326 194.054 148.511 194.442C148.697 194.831 148.784 195.259 148.766 195.689C148.747 196.119 148.624 196.538 148.406 196.909Z" fill="#B55B52"/>
<path opacity="0.2" d="M148.406 196.909C148.071 197.571 147.605 198.159 147.037 198.637C146.47 199.116 145.812 199.475 145.102 199.694C143.214 200.251 142.185 198.523 142.657 196.682C143.091 195.021 144.545 192.736 146.528 192.972C146.953 193.037 147.357 193.204 147.702 193.461C148.048 193.717 148.326 194.054 148.511 194.442C148.697 194.831 148.784 195.259 148.766 195.689C148.747 196.119 148.624 196.538 148.406 196.909Z" fill="black"/>
<path d="M142.931 193.067C144.819 194.794 148.265 185.317 144.404 182.683C140.543 180.049 139.193 183.627 139.259 185.808C139.325 187.988 140.08 190.509 142.931 193.067Z" fill="#263238"/>
<path d="M130.036 191.472C130.923 197.475 131.14 201.034 134.416 203.932C139.334 208.284 146.443 205.018 147.339 198.901C148.151 193.388 146.565 184.486 140.533 182.475C139.212 182.026 137.797 181.929 136.427 182.193C135.057 182.457 133.78 183.074 132.721 183.982C131.661 184.889 130.857 186.057 130.386 187.371C129.915 188.684 129.795 190.097 130.036 191.472Z" fill="#B55B52"/>
<path d="M129.658 196.569C130.697 197.239 132.122 199.052 134.265 195.842C134.265 195.012 132.16 193.614 131.999 191.651C131.811 189.366 131.31 186.931 129.46 186.128C125.24 184.24 124.466 187.865 124.882 190.037C125.297 192.208 126.439 194.464 129.658 196.569Z" fill="#263238"/>
<path d="M129.092 188.243C139.051 186.695 144.932 186.355 147.925 182.626C150.917 178.897 146.32 174.281 141.317 173.753C140.958 175.697 135.889 180.814 128.101 183.032C127.667 183.151 127.277 183.393 126.977 183.728C126.677 184.063 126.48 184.477 126.41 184.921C126.339 185.365 126.398 185.82 126.579 186.232C126.76 186.644 127.055 186.994 127.431 187.242C128.384 187.856 129.092 188.243 129.092 188.243Z" fill="#263238"/>
<path d="M127.931 198.306C128.838 199.538 130.195 200.363 131.707 200.6C133.68 200.902 134.388 199.061 133.595 197.305C132.887 195.72 131.008 193.662 129.139 194.162C127.27 194.662 126.826 196.786 127.931 198.306Z" fill="#B55B52"/>
<path d="M139.202 192.576C139.202 193.067 139.542 193.454 139.854 193.426C140.165 193.397 140.392 192.991 140.354 192.482C140.316 191.972 140.024 191.613 139.703 191.632C139.382 191.651 139.164 192.047 139.202 192.576Z" fill="#263238"/>
<path d="M144.677 192.17C144.725 192.661 145.017 193.039 145.329 193.02C145.64 193.001 145.867 192.585 145.829 192.076C145.791 191.566 145.489 191.198 145.178 191.226C144.866 191.254 144.64 191.679 144.677 192.17Z" fill="#263238"/>
<path d="M142.959 192.576C143.668 194.04 144.569 195.402 145.64 196.626C145.329 196.888 144.963 197.077 144.57 197.18C144.176 197.283 143.765 197.297 143.365 197.22L142.959 192.576Z" fill="#A02724"/>
<path d="M142.072 198.627C142.09 198.626 142.108 198.621 142.124 198.613C142.141 198.604 142.155 198.593 142.166 198.578C142.178 198.564 142.186 198.548 142.191 198.53C142.196 198.513 142.197 198.494 142.195 198.476C142.194 198.457 142.189 198.439 142.18 198.422C142.172 198.406 142.161 198.391 142.147 198.379C142.133 198.366 142.116 198.357 142.099 198.351C142.081 198.345 142.062 198.343 142.044 198.344C141.436 198.395 140.825 198.303 140.259 198.075C139.694 197.847 139.189 197.49 138.787 197.032C138.776 197.017 138.762 197.004 138.746 196.995C138.73 196.985 138.712 196.979 138.694 196.976C138.675 196.974 138.656 196.975 138.638 196.979C138.62 196.984 138.603 196.992 138.589 197.003C138.574 197.015 138.561 197.029 138.552 197.045C138.542 197.061 138.536 197.078 138.533 197.097C138.531 197.115 138.532 197.134 138.536 197.152C138.541 197.17 138.549 197.187 138.56 197.202C138.989 197.703 139.531 198.095 140.142 198.343C140.753 198.591 141.415 198.688 142.072 198.627Z" fill="#263238"/>
<path d="M137.399 190.858C137.443 190.857 137.485 190.845 137.523 190.824C137.561 190.802 137.593 190.772 137.616 190.735C137.796 190.426 138.048 190.165 138.35 189.975C138.653 189.784 138.997 189.669 139.353 189.64C139.391 189.641 139.428 189.635 139.463 189.621C139.498 189.608 139.53 189.587 139.556 189.56C139.583 189.534 139.604 189.502 139.618 189.467C139.631 189.432 139.638 189.395 139.636 189.357C139.636 189.279 139.606 189.205 139.551 189.15C139.496 189.095 139.421 189.064 139.344 189.064C138.893 189.09 138.456 189.227 138.07 189.463C137.685 189.698 137.364 190.025 137.135 190.414C137.114 190.446 137.101 190.482 137.094 190.52C137.088 190.557 137.089 190.596 137.098 190.633C137.107 190.67 137.123 190.704 137.145 190.735C137.168 190.766 137.197 190.791 137.229 190.811C137.253 190.83 137.28 190.843 137.309 190.852C137.339 190.86 137.369 190.862 137.399 190.858Z" fill="#263238"/>
<path d="M146.971 190.037L147.085 189.989C147.117 189.969 147.145 189.941 147.167 189.909C147.188 189.877 147.203 189.841 147.21 189.803C147.217 189.765 147.216 189.726 147.208 189.688C147.199 189.65 147.183 189.615 147.16 189.584C146.916 189.197 146.583 188.873 146.189 188.64C145.795 188.407 145.351 188.271 144.895 188.243C144.857 188.243 144.819 188.251 144.784 188.265C144.749 188.28 144.717 188.302 144.691 188.329C144.664 188.357 144.644 188.389 144.63 188.424C144.616 188.46 144.61 188.498 144.611 188.536C144.614 188.612 144.646 188.684 144.7 188.737C144.755 188.789 144.828 188.819 144.904 188.819C145.266 188.846 145.617 188.958 145.927 189.147C146.237 189.336 146.498 189.595 146.688 189.904C146.72 189.949 146.763 189.984 146.813 190.007C146.862 190.03 146.917 190.041 146.971 190.037Z" fill="#263238"/>
<path d="M116.631 220.197L124.278 224.691C124.278 224.691 114.63 243.571 115.678 246.516C117.103 250.481 119.265 259.194 121.795 263.508C121.549 264.452 120.133 266.746 119.303 267.171C113.223 263.093 106.568 249.735 106.587 245.921C106.672 237.265 116.631 220.197 116.631 220.197Z" fill="#B55B52"/>
<path d="M120.048 212.145C114.328 212.976 108.239 232.913 108.239 232.913L121.776 237.227C124.189 232.701 126.28 228.01 128.035 223.19C130.546 215.827 126.184 211.248 120.048 212.145Z" fill="#407BFF"/>
</g>
<path d="M331.174 339.311C357.242 339.311 378.374 318.179 378.374 292.111C378.374 266.044 357.242 244.911 331.174 244.911C305.106 244.911 283.974 266.044 283.974 292.111C283.974 318.179 305.106 339.311 331.174 339.311Z" fill="#407BFF"/>
<path d="M331.174 336.829C355.871 336.829 375.891 316.808 375.891 292.111C375.891 267.415 355.871 247.394 331.174 247.394C306.477 247.394 286.457 267.415 286.457 292.111C286.457 316.808 306.477 336.829 331.174 336.829Z" fill="white"/>
<mask id="mask1_110_492" style="mask-type:luminance" maskUnits="userSpaceOnUse" x="286" y="247" width="90" height="90">
<path d="M331.174 336.829C355.871 336.829 375.891 316.808 375.891 292.111C375.891 267.415 355.871 247.394 331.174 247.394C306.477 247.394 286.457 267.415 286.457 292.111C286.457 316.808 306.477 336.829 331.174 336.829Z" fill="white"/>
</mask>
<g mask="url(#mask1_110_492)">
<path d="M329.116 258.127C322.404 257.523 318.222 267.851 319.619 283.615C328.115 288.439 337.848 283.615 345.636 287.495C352.839 276.479 350.923 251.633 329.116 258.127Z" fill="#263238"/>
<path d="M318.638 303.76C317.673 307.342 316.315 310.805 314.588 314.088C313.658 315.884 312.497 317.55 311.133 319.044C310.733 319.473 310.301 319.871 309.84 320.233C309.116 320.857 308.251 321.295 307.319 321.508C306.602 321.654 305.859 321.622 305.157 321.413C304.533 321.223 303.957 320.901 303.468 320.469C302.852 319.915 302.352 319.244 301.995 318.496C301.529 317.493 301.183 316.438 300.966 315.353C300.763 314.418 300.611 313.472 300.513 312.521C300.305 310.633 300.211 308.877 300.183 307.083C300.13 303.537 300.291 299.99 300.664 296.463L304.138 296.529C304.44 299.928 304.789 303.364 305.233 306.706C305.469 308.376 305.733 310.038 306.073 311.624C306.243 312.407 306.441 313.181 306.649 313.889C306.819 314.502 307.063 315.092 307.376 315.645C307.48 315.815 307.612 315.91 307.451 315.73C307.289 315.59 307.099 315.484 306.894 315.419C306.61 315.331 306.309 315.312 306.016 315.362C305.592 315.438 305.563 315.56 305.733 315.362C305.932 315.16 306.118 314.946 306.29 314.72C307.151 313.544 307.882 312.278 308.471 310.944C309.159 309.489 309.77 307.998 310.302 306.479C310.869 304.959 311.397 303.326 311.86 301.853L318.638 303.76Z" fill="#FFB573"/>
<path d="M313.974 294.67C311.142 295.396 309.16 307.045 309.16 307.045L319.988 314.409C319.988 314.409 324.443 300.598 322.263 297.483C320.082 294.368 318.128 293.584 313.974 294.67Z" fill="#263238"/>
<path opacity="0.2" d="M314.229 297.275L312.049 309.018L316.438 311.992L314.229 297.275Z" fill="black"/>
<path d="M304.289 297.502L305.724 290.261L299.965 291.932C299.965 291.932 299.399 296.945 301.721 298.597L304.289 297.502Z" fill="#FFB573"/>
<path d="M305.148 287.08L300.39 289.053L299.965 291.932L305.724 290.261L305.148 287.08Z" fill="#FFB573"/>
<path d="M313.974 294.67C313.974 294.67 310.699 295.831 317.259 336.14H345.155C344.692 324.812 344.673 317.779 350.101 294.471C346.195 293.668 342.235 293.148 338.254 292.914C334.037 292.611 329.803 292.611 325.586 292.914C320.148 293.414 313.974 294.67 313.974 294.67Z" fill="#263238"/>
<path opacity="0.2" d="M347.807 303.704C345.277 304.327 342.936 307.093 343.22 312.2C343.377 314.51 344.186 316.729 345.551 318.6C345.995 314.692 346.741 310.151 347.93 304.355L347.807 303.704Z" fill="black"/>
<path d="M327.058 301.853C327.058 301.853 331.627 305.629 331.627 309.623C335.403 306.838 340.548 299.239 341.067 294.415C341.085 294.219 341.064 294.022 341.003 293.835C340.943 293.648 340.846 293.476 340.717 293.327C340.588 293.179 340.431 293.059 340.254 292.973C340.077 292.887 339.885 292.838 339.689 292.829C339.347 292.806 339.006 292.762 338.669 292.697C338.527 292.666 338.38 292.669 338.239 292.705C338.098 292.741 337.968 292.81 337.858 292.904L327.058 301.853Z" fill="#FAFAFA"/>
<path d="M327.058 301.853C325.813 302.775 324.766 303.938 323.98 305.273C323.193 306.608 322.683 308.087 322.48 309.623C318.628 306.791 320.224 298.077 322.367 293.962C322.535 293.64 322.78 293.366 323.079 293.162C323.379 292.957 323.724 292.83 324.085 292.791C324.642 292.725 325.076 292.649 325.359 292.593C325.41 292.582 325.463 292.582 325.514 292.592C325.565 292.603 325.613 292.624 325.656 292.654C325.698 292.684 325.734 292.723 325.761 292.768C325.788 292.812 325.805 292.862 325.812 292.914L327.058 301.853Z" fill="#FAFAFA"/>
<path d="M337.008 278.65C336.215 282.728 335.413 290.195 338.263 292.914C335.172 296.618 331.364 299.659 327.068 301.853C321.404 297.332 325.595 292.914 325.595 292.914C330.145 291.828 330.022 288.458 329.229 285.286L337.008 278.65Z" fill="#FFB573"/>
<path opacity="0.2" d="M333.827 281.359L329.229 285.286C329.422 286.023 329.551 286.774 329.616 287.533C331.353 287.288 334.082 285.805 334.459 283.917C334.465 283.025 334.247 282.146 333.827 281.359Z" fill="black"/>
<path d="M343.833 272.099C341.945 278.65 341.294 281.463 337.178 284.135C330.995 288.137 323.358 284.389 323.244 277.404C323.141 271.117 326.246 261.46 333.336 260.261C334.898 259.989 336.503 260.122 338 260.645C339.496 261.169 340.834 262.066 341.885 263.253C342.937 264.439 343.668 265.874 344.009 267.422C344.35 268.971 344.29 270.58 343.833 272.099Z" fill="#FFB573"/>
<path d="M338.802 265.991C339.953 272.533 340.397 275.063 342.71 276.753C345.023 278.442 347.175 270.683 345.466 267.7C343.758 264.716 338.802 265.991 338.802 265.991Z" fill="#263238"/>
<path d="M327.927 259.855C326.539 261.497 329.39 264.934 332.156 266.057C331.986 265.696 331.862 265.316 331.788 264.924C333.785 266.29 336.03 267.252 338.396 267.756C338.129 267.418 337.951 267.019 337.876 266.595C337.876 266.274 344.692 270.786 345.683 267.539C346.675 264.292 343.295 260.044 338.131 258.684C333.732 257.58 329.635 257.825 327.927 259.855Z" fill="#263238"/>
<path d="M332.845 271.513C332.732 272.051 332.345 272.457 331.986 272.344C331.627 272.231 331.448 271.768 331.571 271.221C331.693 270.673 332.071 270.277 332.43 270.39C332.788 270.503 332.968 270.928 332.845 271.513Z" fill="#263238"/>
<path d="M326.737 270.154C326.615 270.692 326.228 271.098 325.878 270.985C325.529 270.871 325.331 270.409 325.453 269.861C325.576 269.314 325.954 268.917 326.313 269.031C326.671 269.144 326.851 269.606 326.737 270.154Z" fill="#263238"/>
<path d="M326.463 269.097L325.246 268.426C325.246 268.426 325.68 269.588 326.463 269.097Z" fill="#263238"/>
<path d="M328.399 271.542C327.644 272.667 326.739 273.683 325.708 274.562C325.944 274.827 326.235 275.036 326.562 275.173C326.889 275.311 327.242 275.373 327.596 275.355L328.399 271.542Z" fill="#ED893E"/>
<path d="M330.032 278.131C329.759 278.11 329.488 278.072 329.22 278.017C329.178 278.006 329.142 277.98 329.119 277.943C329.096 277.906 329.089 277.862 329.097 277.819C329.102 277.798 329.11 277.778 329.123 277.76C329.135 277.742 329.151 277.727 329.17 277.715C329.189 277.704 329.209 277.696 329.231 277.693C329.252 277.69 329.274 277.691 329.295 277.697C329.964 277.86 330.662 277.863 331.333 277.708C332.003 277.552 332.628 277.241 333.156 276.8C333.188 276.769 333.23 276.752 333.274 276.752C333.318 276.752 333.361 276.769 333.392 276.8C333.42 276.831 333.436 276.871 333.436 276.913C333.436 276.955 333.42 276.995 333.392 277.026C332.933 277.423 332.399 277.725 331.823 277.915C331.246 278.104 330.637 278.178 330.032 278.131Z" fill="#263238"/>
<path d="M344.267 278.64C343.527 279.728 342.387 280.478 341.096 280.727C339.377 281.048 338.669 279.471 339.283 277.895C339.831 276.507 341.379 274.676 343.059 275.063C343.425 275.152 343.762 275.333 344.039 275.588C344.317 275.842 344.525 276.163 344.646 276.52C344.766 276.877 344.795 277.258 344.729 277.629C344.662 277.999 344.504 278.347 344.267 278.64Z" fill="#FFB573"/>
<path d="M335.847 270.324C335.778 270.316 335.714 270.286 335.665 270.238C335.615 270.191 335.583 270.128 335.573 270.06C335.411 269.553 335.146 269.086 334.795 268.686C334.445 268.287 334.015 267.964 333.534 267.737C333.489 267.724 333.447 267.7 333.412 267.669C333.376 267.638 333.348 267.6 333.329 267.557C333.31 267.513 333.3 267.467 333.3 267.42C333.3 267.372 333.31 267.326 333.33 267.283C333.35 267.24 333.379 267.202 333.414 267.171C333.45 267.14 333.492 267.118 333.537 267.104C333.582 267.091 333.63 267.087 333.677 267.094C333.723 267.101 333.768 267.117 333.808 267.143C334.387 267.416 334.9 267.81 335.314 268.298C335.728 268.787 336.032 269.358 336.206 269.975C336.22 270.058 336.201 270.144 336.154 270.214C336.106 270.285 336.034 270.334 335.951 270.352L335.847 270.324Z" fill="#263238"/>
<path d="M325.529 265.821C325.471 265.823 325.414 265.81 325.363 265.783C325.312 265.757 325.268 265.718 325.236 265.67C325.19 265.597 325.173 265.509 325.191 265.424C325.209 265.339 325.259 265.265 325.331 265.217C325.756 264.923 326.245 264.736 326.758 264.67C327.27 264.605 327.791 264.663 328.276 264.839C328.316 264.856 328.353 264.88 328.384 264.911C328.415 264.942 328.439 264.979 328.454 265.02C328.47 265.06 328.478 265.104 328.476 265.147C328.475 265.191 328.464 265.234 328.446 265.273C328.429 265.312 328.404 265.347 328.373 265.375C328.342 265.404 328.306 265.427 328.267 265.442C328.227 265.457 328.185 265.464 328.143 265.462C328.101 265.461 328.06 265.451 328.021 265.434C327.634 265.304 327.221 265.266 326.816 265.323C326.411 265.38 326.025 265.531 325.689 265.764C325.642 265.797 325.586 265.816 325.529 265.821Z" fill="#263238"/>
<path d="M332.571 270.456L331.363 269.786C331.363 269.786 331.797 270.928 332.571 270.456Z" fill="#263238"/>
<path d="M345.58 334.506L346.288 336.999C346.391 337.197 346.155 337.395 345.834 337.395H317.118C316.863 337.395 316.655 337.263 316.646 337.112L316.391 334.61C316.391 334.44 316.589 334.289 316.863 334.289H345.126C345.214 334.282 345.303 334.299 345.382 334.337C345.462 334.375 345.53 334.433 345.58 334.506Z" fill="#407BFF"/>
<path opacity="0.2" d="M345.58 334.506L346.288 336.999C346.391 337.197 346.155 337.395 345.834 337.395H317.118C316.863 337.395 316.655 337.263 316.646 337.112L316.391 334.61C316.391 334.44 316.589 334.289 316.863 334.289H345.126C345.214 334.282 345.303 334.299 345.382 334.337C345.462 334.375 345.53 334.433 345.58 334.506Z" fill="black"/>
<path d="M341.728 337.659H342.483C342.634 337.659 342.748 337.584 342.738 337.489L342.379 334.242C342.379 334.148 342.238 334.072 342.087 334.072H341.331C341.18 334.072 341.067 334.148 341.077 334.242L341.435 337.489C341.407 337.584 341.539 337.659 341.728 337.659Z" fill="#407BFF"/>
<path opacity="0.4" d="M341.728 337.659H342.483C342.634 337.659 342.748 337.584 342.738 337.489L342.379 334.242C342.379 334.148 342.238 334.072 342.087 334.072H341.331C341.18 334.072 341.067 334.148 341.077 334.242L341.435 337.489C341.407 337.584 341.539 337.659 341.728 337.659Z" fill="black"/>
<path d="M319.242 337.659H319.997C320.148 337.659 320.271 337.584 320.261 337.489L319.903 334.242C319.903 334.148 319.761 334.072 319.61 334.072H318.855C318.704 334.072 318.591 334.148 318.6 334.242L318.949 337.489C318.959 337.584 319.072 337.659 319.242 337.659Z" fill="#407BFF"/>
<path opacity="0.4" d="M319.242 337.659H319.997C320.148 337.659 320.271 337.584 320.261 337.489L319.903 334.242C319.903 334.148 319.761 334.072 319.61 334.072H318.855C318.704 334.072 318.591 334.148 318.6 334.242L318.949 337.489C318.959 337.584 319.072 337.659 319.242 337.659Z" fill="black"/>
<path d="M330.4 337.659H331.155C331.306 337.659 331.42 337.584 331.41 337.489L331.061 334.242C331.061 334.148 330.919 334.072 330.768 334.072H330.013C329.862 334.072 329.739 334.148 329.749 334.242L330.107 337.489C330.136 337.584 330.268 337.659 330.4 337.659Z" fill="#407BFF"/>
<path opacity="0.4" d="M330.4 337.659H331.155C331.306 337.659 331.42 337.584 331.41 337.489L331.061 334.242C331.061 334.148 330.919 334.072 330.768 334.072H330.013C329.862 334.072 329.739 334.148 329.749 334.242L330.107 337.489C330.136 337.584 330.268 337.659 330.4 337.659Z" fill="black"/>
<path d="M353.358 302.75C353.67 305.11 353.915 307.47 354.198 309.83L354.916 316.92C355.171 319.28 355.35 321.64 355.558 324.009L355.888 327.568L355.964 328.455C355.964 328.55 355.964 328.918 356.011 329.173C356.025 329.446 356.025 329.721 356.011 329.994C355.897 331.008 355.575 331.988 355.067 332.873C354.247 334.239 353.162 335.427 351.876 336.366C350.797 337.177 349.654 337.9 348.459 338.528C346.224 339.676 343.904 340.652 341.52 341.445C336.904 342.993 332.168 344.162 327.36 344.938L326.586 341.549C328.786 340.822 331.032 340.076 333.194 339.245C335.356 338.415 337.546 337.593 339.632 336.64C341.688 335.74 343.682 334.702 345.598 333.534C346.477 332.994 347.313 332.388 348.1 331.722C348.713 331.224 349.223 330.612 349.601 329.919C349.683 329.767 349.731 329.6 349.743 329.428L349.582 328.304L349.082 324.774C348.751 322.423 348.383 320.054 348.138 317.713L347.241 310.642C346.986 308.273 346.684 305.922 346.467 303.553L353.358 302.75Z" fill="#FFB573"/>
<path d="M350.101 294.471C352.933 295.321 356.256 304.95 356.256 304.95L346.448 315.022C346.448 315.022 341.426 304.638 342.606 301.061C343.852 297.294 346.911 293.509 350.101 294.471Z" fill="#263238"/>
</g>
<path d="M327.087 208.001H203.139C202.053 208.001 201.011 207.569 200.242 206.801C199.474 206.033 199.042 204.991 199.042 203.904C199.042 203.366 199.148 202.834 199.354 202.338C199.56 201.841 199.862 201.39 200.243 201.01C200.623 200.631 201.075 200.33 201.572 200.125C202.069 199.92 202.602 199.815 203.139 199.816H327.087C328.171 199.816 329.21 200.247 329.977 201.014C330.743 201.78 331.174 202.82 331.174 203.904C331.175 204.442 331.071 204.974 330.866 205.471C330.661 205.968 330.36 206.42 329.98 206.8C329.601 207.181 329.149 207.483 328.653 207.689C328.156 207.895 327.624 208.001 327.087 208.001Z" fill="white"/>
<path d="M298.304 225.21H203.139C202.602 225.211 202.069 225.107 201.572 224.902C201.075 224.697 200.623 224.396 200.243 224.016C199.862 223.637 199.56 223.186 199.354 222.689C199.148 222.192 199.042 221.66 199.042 221.123C199.042 220.036 199.474 218.994 200.242 218.226C201.011 217.457 202.053 217.026 203.139 217.026H298.304C299.391 217.026 300.433 217.457 301.201 218.226C301.969 218.994 302.401 220.036 302.401 221.123C302.401 221.66 302.295 222.192 302.089 222.689C301.883 223.186 301.581 223.637 301.2 224.016C300.82 224.396 300.368 224.697 299.871 224.902C299.374 225.107 298.842 225.211 298.304 225.21Z" fill="white"/>
<path d="M221.576 287.599H268.861C269.947 287.599 270.989 287.167 271.758 286.399C272.526 285.631 272.958 284.589 272.958 283.502C272.958 282.965 272.852 282.432 272.646 281.936C272.44 281.439 272.138 280.988 271.757 280.608C271.377 280.229 270.925 279.928 270.428 279.723C269.931 279.518 269.398 279.413 268.861 279.415H221.576C220.492 279.415 219.452 279.845 218.685 280.612C217.919 281.378 217.488 282.418 217.488 283.502C217.487 284.04 217.592 284.572 217.797 285.069C218.001 285.566 218.302 286.018 218.682 286.399C219.062 286.779 219.513 287.081 220.009 287.287C220.506 287.493 221.038 287.599 221.576 287.599Z" fill="white"/>
<path d="M169.033 287.599H201.657C202.195 287.599 202.727 287.493 203.224 287.287C203.72 287.081 204.171 286.779 204.551 286.399C204.931 286.018 205.232 285.566 205.436 285.069C205.641 284.572 205.746 284.04 205.745 283.502C205.745 282.418 205.314 281.378 204.548 280.612C203.781 279.845 202.741 279.415 201.657 279.415H169.033C167.949 279.415 166.909 279.845 166.142 280.612C165.376 281.378 164.945 282.418 164.945 283.502C164.944 284.04 165.049 284.572 165.254 285.069C165.458 285.566 165.759 286.018 166.139 286.399C166.519 286.779 166.97 287.081 167.466 287.287C167.963 287.493 168.495 287.599 169.033 287.599Z" fill="white"/>
<path d="M144.913 304.808H268.861C269.398 304.809 269.931 304.705 270.428 304.5C270.925 304.295 271.376 303.994 271.757 303.614C272.138 303.235 272.44 302.784 272.646 302.287C272.852 301.791 272.958 301.258 272.958 300.721C272.958 299.634 272.526 298.592 271.758 297.824C270.989 297.055 269.947 296.624 268.861 296.624H144.913C144.376 296.624 143.844 296.73 143.347 296.936C142.85 297.142 142.399 297.444 142.02 297.824C141.64 298.205 141.339 298.657 141.134 299.154C140.929 299.651 140.825 300.183 140.826 300.721C140.826 301.805 141.257 302.844 142.023 303.611C142.79 304.378 143.829 304.808 144.913 304.808Z" fill="white"/>
<path d="M94.2395 89.68C94.2395 90.459 94.0084 91.2204 93.5754 91.868C93.1425 92.5155 92.5271 93.0201 91.8073 93.3177C91.0874 93.6154 90.2954 93.6928 89.5316 93.5401C88.7677 93.3875 88.0663 93.0116 87.5162 92.4602C86.966 91.9087 86.5919 91.2064 86.441 90.4422C86.2902 89.6779 86.3695 88.8862 86.6689 88.167C86.9683 87.4479 87.4743 86.8338 88.1229 86.4024C88.7715 85.9709 89.5335 85.7417 90.3125 85.7435C91.3548 85.746 92.3537 86.1619 93.0899 86.8998C93.8261 87.6378 94.2395 88.6376 94.2395 89.68Z" fill="white"/>
<path d="M103.689 93.6165C105.863 93.6165 107.625 91.8541 107.625 89.68C107.625 87.506 105.863 85.7435 103.689 85.7435C101.515 85.7435 99.7525 87.506 99.7525 89.68C99.7525 91.8541 101.515 93.6165 103.689 93.6165Z" fill="white"/>
<path d="M117.065 93.6165C119.239 93.6165 121.002 91.8541 121.002 89.68C121.002 87.506 119.239 85.7435 117.065 85.7435C114.891 85.7435 113.129 87.506 113.129 89.68C113.129 91.8541 114.891 93.6165 117.065 93.6165Z" fill="white"/>
</g>
<defs>
<clipPath id="clip0_110_492">
<rect width="472" height="472" fill="white"/>
</clipPath>
</defs>
</svg>
